<?xml version="1.0" encoding="UTF-8" standalone="no"?>
<!DOCTYPE svg PUBLIC "-//W3C//DTD SVG 1.1//EN"
 "http://www.w3.org/Graphics/SVG/1.1/DTD/svg11.dtd">
<!-- Generated by graphviz version 9.0.0 (20230911.1827)
 -->
<!-- Title: Tokenization Pages: 1 -->
<svg width="460pt" height="188pt"
 viewBox="0.00 0.00 460.40 188.00" xmlns="http://www.w3.org/2000/svg" xmlns:xlink="http://www.w3.org/1999/xlink">
<g id="graph0" class="graph" transform="scale(1 1) rotate(0) translate(4 184)">
<title>Tokenization</title>
<polygon fill="#eeefe9" stroke="none" points="-4,4 -4,-184 456.4,-184 456.4,4 -4,4"/>
<!-- A -->
<g id="node1" class="node">
<title>A</title>
<path fill="none" stroke="#d1b59d" d="M398.4,-180C398.4,-180 54,-180 54,-180 48,-180 42,-174 42,-168 42,-168 42,-156 42,-156 42,-150 48,-144 54,-144 54,-144 398.4,-144 398.4,-144 404.4,-144 410.4,-150 410.4,-156 410.4,-156 410.4,-168 410.4,-168 410.4,-174 404.4,-180 398.4,-180"/>
<text text-anchor="middle" x="226.2" y="-157.8" font-family="Arial" font-size="14.00" fill="#333333">Input Text: &#39;The quick brown fox jumps over the lazy dog&#39;</text>
</g>
<!-- B -->
<g id="node2" class="node">
<title>B</title>
<polygon fill="#5c4938" stroke="#5c4938" points="289.45,-108 162.95,-108 162.95,-72 289.45,-72 289.45,-108"/>
<text text-anchor="middle" x="226.2" y="-85.8" font-family="Arial" font-size="14.00" fill="white">Text Tokenization</text>
</g>
<!-- A&#45;&gt;B -->
<g id="edge1" class="edge">
<title>A&#45;&gt;B</title>
<path fill="none" stroke="black" d="M226.2,-143.7C226.2,-136.41 226.2,-127.73 226.2,-119.54"/>
<polygon fill="black" stroke="black" points="229.7,-119.62 226.2,-109.62 222.7,-119.62 229.7,-119.62"/>
</g>
<!-- C -->
<g id="node3" class="node">
<title>C</title>
<polygon fill="#8b735b" stroke="#8b735b" points="452.4,-36 0,-36 0,0 452.4,0 452.4,-36"/>
<text text-anchor="middle" x="226.2" y="-13.8" font-family="Arial" font-size="14.00" fill="white">Token List: [&#39;The&#39;, &#39;quick&#39;, &#39;brown&#39;, &#39;fox&#39;, &#39;jumps&#39;, &#39;over&#39;, &#39;the&#39;, &#39;lazy&#39;, &#39;dog&#39;]</text>
</g>
<!-- B&#45;&gt;C -->
<g id="edge2" class="edge">
<title>B&#45;&gt;C</title>
<path fill="none" stroke="black" d="M226.2,-71.7C226.2,-64.41 226.2,-55.73 226.2,-47.54"/>
<polygon fill="black" stroke="black" points="229.7,-47.62 226.2,-37.62 222.7,-47.62 229.7,-47.62"/>
</g>
</g>
</svg>
